<?xml version="1.0" standalone="no"?><!DOCTYPE svg PUBLIC "-//W3C//DTD SVG 1.1//EN" "http://www.w3.org/Graphics/SVG/1.1/DTD/svg11.dtd"><svg t="1685350217412" class="icon" viewBox="0 0 1024 1024" version="1.1" xmlns="http://www.w3.org/2000/svg" p-id="1753" xmlns:xlink="http://www.w3.org/1999/xlink" width="200" height="200"><path d="M328.4 629.6c4.4 47.1 9.8 91.9 16.4 134.5-65.6 58.2-110.4 103-134.4 134.5l-68.9-90.8c21.8-15.7 31.7-43.7 29.5-84v-232h-59V364.1h180.3v302.5l36.1-37zM233.3 112c19.7 24.7 50.3 67.2 91.8 127.7-6.6-6.7-2.2 0 13.1 20.2l-111.5 70.6c-15.3-26.9-41.5-70.6-78.7-131.1-6.6-11.2-12-20.2-16.4-26.9L233.3 112z m127.9 423.5V138.9h508.2v396.6H672.7v47.1h229.5v104.2H735c48 44.8 107 79.6 177 104.2-21.9 31.4-42.6 63.9-62.3 97.5-85.2-42.6-144.3-82.9-177-121V912h-118V767.5c-39.3 44.9-97.3 87.4-173.8 127.7-2.2-4.5-7.7-11.2-16.4-20.2-24.1-33.6-42.6-58.2-55.7-73.9 80.8-31.4 142.1-69.4 183.6-114.3H338.2V582.6h216.4v-47.1H361.2z m114.7-295.8v47.1h78.7v-47.1h-78.7z m0 144.6v50.4h78.7v-50.4h-78.7z m275.4-144.6h-78.7v47.1h78.7v-47.1z m0 195v-50.4h-78.7v50.4h78.7z" p-id="1754"></path></svg>