<?xml version="1.0" standalone="no"?><!DOCTYPE svg PUBLIC "-//W3C//DTD SVG 1.1//EN" "http://www.w3.org/Graphics/SVG/1.1/DTD/svg11.dtd"><svg t="1689295701656" class="icon" viewBox="0 0 1024 1024" version="1.1" xmlns="http://www.w3.org/2000/svg" p-id="2447" xmlns:xlink="http://www.w3.org/1999/xlink" width="250" height="250"><path d="M666.7 281.9v-40.7c0-6.4-5.4-11.6-12-11.6h-386c-6.6 0-12 5.2-12 11.6v40.7c0 6.4 5.4 11.6 12 11.6h386c6.6 0 12-5.2 12-11.6zM447.7 410.5h-180c-6.6 0-12 5.2-12 11.6v40.7c0 6.4 5.4 11.6 12 11.6h180c6.6 0 12-5.2 12-11.6v-40.7c0-6.4-5.4-11.6-12-11.6z" p-id="2448"></path><path d="M404.7 888H182.2V136h560v298.4c0 8.8 7.2 16 16 16h40c8.8 0 16-7.2 16-16V96c0-17.6-14.4-32-32-32h-640c-17.6 0-32 14.4-32 32v832c0 17.6 14.4 32 32 32h262.5c8.8 0 16-7.2 16-16v-40c0-8.8-7.2-16-16-16z" p-id="2449"></path><path d="M899.6 862.9c-9.8-21.3-24.5-39.9-43.5-55.1-12.9-10.3-27.6-19-44-25.9 3.5-3.2 6.8-6.7 10-10.3 23-26.9 34.7-63.9 34.7-110 0-87.1-70.9-158-158-158s-158 70.9-158 158c0 46.1 19.8 87.6 51.4 116.5-19.8 7.4-38.2 17.1-54.5 28.9-21.1 15.2-37.8 33.2-49.6 53.3-12.8 21.8-19.2 45.1-19.2 69.3 0 16.6 13.4 30 30 30s30-13.4 30-30c0-27.2 15.6-53.5 43.9-74 31.3-22.6 73.4-35 118.6-35 55.4 0 99.4 11.8 127.4 34.2 23.3 18.6 35.1 43.8 35.1 74.8 0 16.6 13.4 30 30 30s30-13.4 30-30c-0.1-24-4.9-46.4-14.3-66.7zM698.8 563.5c54 0 98 44 98 98 0 31.4-6.8 55.3-20.3 71-15.3 17.9-41.5 27-77.7 27-54 0-98-44-98-98s43.9-98 98-98z" p-id="2450"></path></svg>