<?xml version="1.0" standalone="no"?><!DOCTYPE svg PUBLIC "-//W3C//DTD SVG 1.1//EN" "http://www.w3.org/Graphics/SVG/1.1/DTD/svg11.dtd"><svg t="1688976374480" class="icon" viewBox="0 0 1024 1024" version="1.1" xmlns="http://www.w3.org/2000/svg" p-id="2387" xmlns:xlink="http://www.w3.org/1999/xlink" width="250" height="250"><path d="M0 0h1024v1024H0V0z" fill="#202425" opacity=".01" p-id="2388"></path><path d="M221.866667 68.266667A119.466667 119.466667 0 0 1 341.333333 187.733333v68.266667a119.466667 119.466667 0 1 1-238.933333 0v-68.266667A119.466667 119.466667 0 0 1 221.866667 68.266667zM34.133333 716.8a273.066667 273.066667 0 0 1 273.066667-273.066667h409.6a273.066667 273.066667 0 0 1 273.066667 273.066667v68.266667a34.133333 34.133333 0 0 1-34.133334 34.133333H68.266667a34.133333 34.133333 0 0 1-34.133334-34.133333v-68.266667zM921.6 187.733333a119.466667 119.466667 0 1 0-238.933333 0v68.266667a119.466667 119.466667 0 1 0 238.933333 0v-68.266667z" fill="#FFAA44" p-id="2389"></path><path d="M648.533333 341.333333a136.533333 136.533333 0 0 0-273.066666 0v68.266667a136.533333 136.533333 0 0 0 273.066666 0v-68.266667z m-136.533333 273.066667a307.2 307.2 0 0 0-307.2 307.2v17.885867c0 8.977067 7.2704 16.247467 16.247467 16.247466h581.905066a16.247467 16.247467 0 0 0 16.247467-16.247466V921.6a307.2 307.2 0 0 0-307.2-307.2z" fill="#11AA66" p-id="2390"></path></svg>